<?xml version="1.0" encoding="UTF-8" standalone="no"?>
<svg width="240px" height="240px" viewBox="0 0 240 240" version="1.1" xmlns="http://www.w3.org/2000/svg" xmlns:xlink="http://www.w3.org/1999/xlink" xmlns:sketch="http://www.bohemiancoding.com/sketch/ns">
    <!-- Generator: Sketch 3.5.1 (25234) - http://www.bohemiancoding.com/sketch -->
    <title>Artboard 1</title>
    <desc>Created with Sketch.</desc>
    <defs></defs>
    <g id="Page-1" stroke="none" stroke-width="1" fill="none" fill-rule="evenodd" sketch:type="MSPage">
        <g id="Artboard-1" sketch:type="MSArtboardGroup" fill="#17142B">
            <path d="M217.506899,234.185734 C203.265044,219.004038 189.670546,203.822342 175.105012,188.317631 C184.815368,173.135935 188.052153,154.724092 189.023188,136.958277 L215.564827,136.958277 L215.564827,104.979812 L156.331658,104.979812 C156.331658,112.086137 156.331658,122.745626 155.6843,133.0821 C155.036943,143.741588 153.742229,154.078062 149.858087,161.184388 L110.045629,117.900404 C135.292553,103.364738 153.418551,86.2449529 153.418551,56.5275908 C153.418551,20.6729475 123.316448,0 89.97756,0 C55.3439579,0 27.1839262,21.6419919 27.1839262,57.8196501 C27.1839262,79.1386272 37.2179605,91.7362046 51.7834941,107.56393 C27.5076048,122.422611 11,142.126514 11,170.551817 C11,213.512786 46.2809592,240 87.0644533,240 C110.692986,240 133.674161,232.247645 152.123837,216.096904 L168.307763,234.185734 L217.506899,234.185734 Z M115.548163,58.1426649 C115.548163,77.2005384 100.335273,84.6298789 86.0934177,92.3822342 C76.7067405,82.69179 64.4069565,72.0323015 64.4069565,57.1736205 C64.4069565,41.345895 76.7067405,33.2705249 89.97756,33.2705249 C104.543094,33.2705249 115.548163,42.3149394 115.548163,58.1426649 L115.548163,58.1426649 Z M127.847947,190.578735 C117.813913,201.561238 102.924701,204.791386 89.3302029,204.791386 C67.6437418,204.791386 48.2230303,192.516824 48.2230303,168.936743 C48.2230303,149.555855 60.1991357,141.803499 75.4120264,132.759085 C93.2143452,152.139973 110.045629,171.197847 127.847947,190.578735 L127.847947,190.578735 Z" id="&amp;-symbol" sketch:type="MSShapeGroup"></path>
        </g>
    </g>
</svg>