<?xml version="1.0" encoding="UTF-8" standalone="no"?>
<svg width="240px" height="240px" viewBox="0 0 240 240" version="1.1" xmlns="http://www.w3.org/2000/svg" xmlns:xlink="http://www.w3.org/1999/xlink" xmlns:sketch="http://www.bohemiancoding.com/sketch/ns">
    <!-- Generator: Sketch 3.5.1 (25234) - http://www.bohemiancoding.com/sketch -->
    <title>Artboard 1 Copy 2</title>
    <desc>Created with Sketch.</desc>
    <defs>
        <path d="M206.506899,234.185734 C192.265044,219.004038 178.670546,203.822342 164.105012,188.317631 C173.815368,173.135935 177.052153,154.724092 178.023188,136.958277 L204.564827,136.958277 L204.564827,104.979812 L145.331658,104.979812 C145.331658,112.086137 145.331658,122.745626 144.6843,133.0821 C144.036943,143.741588 142.742229,154.078062 138.858087,161.184388 L99.0456285,117.900404 C124.292553,103.364738 142.418551,86.2449529 142.418551,56.5275908 C142.418551,20.6729475 112.316448,0 78.97756,0 C44.3439579,0 16.1839262,21.6419919 16.1839262,57.8196501 C16.1839262,79.1386272 26.2179605,91.7362046 40.7834941,107.56393 C16.5076048,122.422611 0,142.126514 0,170.551817 C0,213.512786 35.2809592,240 76.0644533,240 C99.6929856,240 122.674161,232.247645 141.123837,216.096904 L157.307763,234.185734 L206.506899,234.185734 Z M104.548163,58.1426649 C104.548163,77.2005384 89.3352728,84.6298789 75.0934177,92.3822342 C65.7067405,82.69179 53.4069565,72.0323015 53.4069565,57.1736205 C53.4069565,41.345895 65.7067405,33.2705249 78.97756,33.2705249 C93.5430936,33.2705249 104.548163,42.3149394 104.548163,58.1426649 L104.548163,58.1426649 Z M116.847947,190.578735 C106.813913,201.561238 91.924701,204.791386 78.3302029,204.791386 C56.6437418,204.791386 37.2230303,192.516824 37.2230303,168.936743 C37.2230303,149.555855 49.1991357,141.803499 64.4120264,132.759085 C82.2143452,152.139973 99.0456285,171.197847 116.847947,190.578735 L116.847947,190.578735 Z" id="path-1"></path>
    </defs>
    <g id="Page-1" stroke="none" stroke-width="1" fill="none" fill-rule="evenodd" sketch:type="MSPage">
        <g id="Artboard-1-Copy-2" sketch:type="MSArtboardGroup">
            <g id="Lines" sketch:type="MSLayerGroup" transform="translate(11.000000, 0.000000)">
                <mask id="mask-2" sketch:name="Mask" fill="white">
                    <use xlink:href="#path-1"></use>
                </mask>
                <use id="Mask" sketch:type="MSShapeGroup" xlink:href="#path-1"></use>
                <g mask="url(#mask-2)" stroke-linecap="square" stroke="#3A3656" sketch:type="MSShapeGroup">
                    <g transform="translate(-47.000000, -150.000000)">
                        <path d="M0,360.000001 L311.769145,180" id="Line"></path>
                        <path d="M0,372.000001 L311.769145,192" id="Line-Copy-16"></path>
                        <path d="M0,384.000001 L311.769145,204" id="Line-Copy-17"></path>
                        <path d="M0,396.000001 L311.769145,216" id="Line-Copy-18"></path>
                        <path d="M0,408.000001 L311.769145,228" id="Line-Copy-19"></path>
                        <path d="M0,420.000001 L311.769145,240" id="Line-Copy-20"></path>
                        <path d="M0,432.000001 L311.769145,252" id="Line-Copy-21"></path>
                        <path d="M0,444.000001 L311.769145,264" id="Line-Copy-22"></path>
                        <path d="M0,456.000001 L311.769145,276" id="Line-Copy-23"></path>
                        <path d="M0,468.000001 L311.769145,288" id="Line-Copy-24"></path>
                        <path d="M0,480.000001 L311.769145,300" id="Line-Copy-25"></path>
                        <path d="M0,492.000001 L311.769145,312" id="Line-Copy-26"></path>
                        <path d="M0,504.000001 L311.769145,324" id="Line-Copy-27"></path>
                        <path d="M0,516.000001 L311.769145,336" id="Line-Copy-28"></path>
                        <path d="M0,528.000001 L311.769145,348" id="Line-Copy-29"></path>
                        <path d="M0,540.000001 L311.769145,360" id="Line-Copy-30"></path>
                        <path d="M0,348.000001 L311.769145,168" id="Line-Copy"></path>
                        <path d="M0,336.000001 L311.769145,156" id="Line-Copy-2"></path>
                        <path d="M0,324.000001 L311.769145,144" id="Line-Copy-3"></path>
                        <path d="M0,312.000001 L311.769145,132" id="Line-Copy-4"></path>
                        <path d="M0,300.000001 L311.769145,120" id="Line-Copy-5"></path>
                        <path d="M0,288.000001 L311.769145,108" id="Line-Copy-6"></path>
                        <path d="M0,276.000001 L311.769145,96" id="Line-Copy-7"></path>
                        <path d="M0,264.000001 L311.769145,84" id="Line-Copy-8"></path>
                        <path d="M0,252.000001 L311.769145,72" id="Line-Copy-9"></path>
                        <path d="M0,240.000001 L311.769145,60" id="Line-Copy-10"></path>
                        <path d="M0,228.000001 L311.769145,48" id="Line-Copy-11"></path>
                        <path d="M0,216.000001 L311.769145,36" id="Line-Copy-12"></path>
                        <path d="M0,204.000001 L311.769145,24" id="Line-Copy-13"></path>
                        <path d="M0,192.000001 L311.769145,12" id="Line-Copy-14"></path>
                        <path d="M0,180.000001 L311.769145,0" id="Line-Copy-15"></path>
                    </g>
                </g>
            </g>
        </g>
    </g>
</svg>